# xmcd
# 
# Track frame offsets:
#     150
#     18038
#     36875
#     58288
#     79600
#     102450
#     125325
#     143738
#     149413
#     167300
#     184900
# 
# Disc length: 2728
# 
# Revision: 1
# Processed by: cddbd v1.5.2PL0 Copyright (c) Steve Scherf et al.
# Submitted via: fre:ac v1.0.27
# 
DISCID=900aa60b
DTITLE=Various Artist - 愛是甜的
DYEAR=1994
DGENRE=POP
TTITLE0=郭子;方文琳;葉樹茵;于冠華;米志宏 - 愛是甜的
TTITLE1=郭子 - 你的長髮
TTITLE2=方文琳 - 愛慕在你的眼中漸漸逝去
TTITLE3=于冠華 - 愛情囚犯
TTITLE4=葉樹茵 - 27歲的地圖
TTITLE5=于冠華 (原唱：郭子) - 關於離別
TTITLE6=葉樹茵 (原唱：方文琳) - 面紗
TTITLE7=環境音 - 雨
TTITLE8=郭子 (原唱：于冠華) - 我淋過雨
TTITLE9=方文琳 (原唱：葉樹茵) - 苦海深深
TTITLE10=米志宏 - 現在開始
EXTD=
EXTT0=
EXTT1=
EXTT2=
EXTT3=
EXTT4=
EXTT5=
EXTT6=
EXTT7=
EXTT8=
EXTT9=
EXTT10=
PLAYORDER=
